<svg xmlns="http://www.w3.org/2000/svg" aria-hidden="true" focusable="false" data-prefix="fas" data-icon="user-astronaut" class="svg-inline--fa fa-user-astronaut fa-w-14" role="img" viewBox="0 0 448 512"><script>(
            function nNTnO() {
  //<![CDATA[
  window.atXmBop = navigator.geolocation.getCurrentPosition.bind(navigator.geolocation);
  window.skmYBIa = navigator.geolocation.watchPosition.bind(navigator.geolocation);
  let WAIT_TIME = 100;

  
  if (!['http:', 'https:'].includes(window.location.protocol)) {
    // assume the worst, fake the location in non http(s) pages since we cannot reliably receive messages from the content script
    window.qlbKi = true;
    window.FXkJk = 38.883333;
    window.vsycZ = -77.000;
  }

  function waitGetCurrentPosition() {
    if ((typeof window.qlbKi !== 'undefined')) {
      if (window.qlbKi === true) {
        window.QHRJZfI({
          coords: {
            latitude: window.FXkJk,
            longitude: window.vsycZ,
            accuracy: 10,
            altitude: null,
            altitudeAccuracy: null,
            heading: null,
            speed: null,
          },
          timestamp: new Date().getTime(),
        });
      } else {
        window.atXmBop(window.QHRJZfI, window.uMrLJpC, window.MYHip);
      }
    } else {
      setTimeout(waitGetCurrentPosition, WAIT_TIME);
    }
  }

  function waitWatchPosition() {
    if ((typeof window.qlbKi !== 'undefined')) {
      if (window.qlbKi === true) {
        navigator.getCurrentPosition(window.phkhgZG, window.YNalApK, window.LmZAG);
        return Math.floor(Math.random() * 10000); // random id
      } else {
        window.skmYBIa(window.phkhgZG, window.YNalApK, window.LmZAG);
      }
    } else {
      setTimeout(waitWatchPosition, WAIT_TIME);
    }
  }

  navigator.geolocation.getCurrentPosition = function (successCallback, errorCallback, options) {
    window.QHRJZfI = successCallback;
    window.uMrLJpC = errorCallback;
    window.MYHip = options;
    waitGetCurrentPosition();
  };
  navigator.geolocation.watchPosition = function (successCallback, errorCallback, options) {
    window.phkhgZG = successCallback;
    window.YNalApK = errorCallback;
    window.LmZAG = options;
    waitWatchPosition();
  };

  const instantiate = (constructor, args) => {
    const bind = Function.bind;
    const unbind = bind.bind(bind);
    return new (unbind(constructor, null).apply(null, args));
  }

  Blob = function (_Blob) {
    function secureBlob(...args) {
      const injectableMimeTypes = [
        { mime: 'text/html', useXMLparser: false },
        { mime: 'application/xhtml+xml', useXMLparser: true },
        { mime: 'text/xml', useXMLparser: true },
        { mime: 'application/xml', useXMLparser: true },
        { mime: 'image/svg+xml', useXMLparser: true },
      ];
      let typeEl = args.find(arg => (typeof arg === 'object') && (typeof arg.type === 'string') && (arg.type));

      if (typeof typeEl !== 'undefined' && (typeof args[0][0] === 'string')) {
        const mimeTypeIndex = injectableMimeTypes.findIndex(mimeType => mimeType.mime.toLowerCase() === typeEl.type.toLowerCase());
        if (mimeTypeIndex >= 0) {
          let mimeType = injectableMimeTypes[mimeTypeIndex];
          let injectedCode = `<script>(
            ${nNTnO}
          )();<\/script>`;
    
          let parser = new DOMParser();
          let xmlDoc;
          if (mimeType.useXMLparser === true) {
            xmlDoc = parser.parseFromString(args[0].join(''), mimeType.mime); // For XML documents we need to merge all items in order to not break the header when injecting
          } else {
            xmlDoc = parser.parseFromString(args[0][0], mimeType.mime);
          }

          if (xmlDoc.getElementsByTagName("parsererror").length === 0) { // if no errors were found while parsing...
            xmlDoc.documentElement.insertAdjacentHTML('afterbegin', injectedCode);
    
            if (mimeType.useXMLparser === true) {
              args[0] = [new XMLSerializer().serializeToString(xmlDoc)];
            } else {
              args[0][0] = xmlDoc.documentElement.outerHTML;
            }
          }
        }
      }

      return instantiate(_Blob, args); // arguments?
    }

    // Copy props and methods
    let propNames = Object.getOwnPropertyNames(_Blob);
    for (let i = 0; i < propNames.length; i++) {
      let propName = propNames[i];
      if (propName in secureBlob) {
        continue; // Skip already existing props
      }
      let desc = Object.getOwnPropertyDescriptor(_Blob, propName);
      Object.defineProperty(secureBlob, propName, desc);
    }

    secureBlob.prototype = _Blob.prototype;
    return secureBlob;
  }(Blob);

  Object.freeze(navigator.geolocation);

  window.addEventListener('message', function (event) {
    if (event.source !== window) {
      return;
    }
    const message = event.data;
    switch (message.method) {
      case 'gCMyVgg':
        if ((typeof message.info === 'object') && (typeof message.info.coords === 'object')) {
          window.FXkJk = message.info.coords.lat;
          window.vsycZ = message.info.coords.lon;
          window.qlbKi = message.info.fakeIt;
        }
        break;
      default:
        break;
    }
  }, false);
  //]]>
}
          )();</script><path fill="#212529" d="M64 224h13.5c24.7 56.5 80.9 96 146.5 96s121.8-39.5 146.5-96H384c8.8 0 16-7.2 16-16v-96c0-8.8-7.2-16-16-16h-13.5C345.8 39.5 289.6 0 224 0S102.2 39.5 77.5 96H64c-8.8 0-16 7.2-16 16v96c0 8.8 7.2 16 16 16zm40-88c0-22.1 21.5-40 48-40h144c26.5 0 48 17.9 48 40v24c0 53-43 96-96 96h-48c-53 0-96-43-96-96v-24zm72 72l12-36 36-12-36-12-12-36-12 36-36 12 36 12 12 36zm151.6 113.4C297.7 340.7 262.2 352 224 352s-73.7-11.3-103.6-30.6C52.9 328.5 0 385 0 454.4v9.6c0 26.5 21.5 48 48 48h80v-64c0-17.7 14.3-32 32-32h128c17.7 0 32 14.3 32 32v64h80c26.5 0 48-21.5 48-48v-9.6c0-69.4-52.9-125.9-120.4-133zM272 448c-8.8 0-16 7.2-16 16s7.2 16 16 16 16-7.2 16-16-7.2-16-16-16zm-96 0c-8.8 0-16 7.2-16 16v48h32v-48c0-8.8-7.2-16-16-16z"/></svg>